<?xml version="1.0" encoding="utf-8" ?>
<svg xmlns="http://www.w3.org/2000/svg" xmlns:xlink="http://www.w3.org/1999/xlink"  width="400" 
   height="400">
	<defs>
		<linearGradient id="gradient_0" gradientUnits="userSpaceOnUse" x1="87.755219" y1="316.79135" x2="552.80554" y2="321.88605">
			<stop offset="0" stop-color="#FF8860"/>
			<stop offset="1" stop-color="#9A0284"/>
		</linearGradient>
	</defs>
	<path class="pokeball-rotate" fill="url(#gradient_0)" transform="matrix(0.682813 0 0 0.682813 -3.05176e-05 3.05176e-05)" d="M337.434 551.665C325.742 553.581 303.945 551.998 292.285 550.876C266.825 548.428 242.43 540.48 219.375 529.685C157.847 500.877 116.826 453.368 97.4001 387.542C84.2115 342.852 84.4091 292.215 98.3997 247.581C125.492 161.149 208.027 97.8199 297.246 87.8813C300.468 87.5223 303.724 87.5397 306.955 87.3058L314.326 86.6243C321.972 86.2526 329.658 86.7513 337.258 87.5383C350.563 87.9703 364.009 90.6969 376.879 93.97C441.632 110.438 495.201 150.279 526.759 210.114C544.187 243.158 552.808 279.162 552.834 316.348L552.717 336.753C552.567 341.335 551.899 345.63 551.243 350.156L547.638 370.247C526.657 461.784 453.039 533.561 359.532 548.986C352.529 550.141 344.527 551.775 337.434 551.665ZM340.23 509.157C373.03 506.599 404.877 494.071 431.547 475.003C433.971 473.269 449.721 461.679 449.677 459.491L379.74 390.097C378.118 388.758 377.663 390.231 376.094 391.468C362.624 402.085 344.108 410.095 326.694 410.91L326.331 411.025L325.856 411.072C281.881 415.177 241.64 381.809 231.694 339.954C224.82 311.025 233.116 281.861 252.356 259.269L183.382 188.608C177.306 193.829 171.978 200.797 167.12 207.136C120.915 267.425 118.245 339.917 152.607 407.496C182.129 465.558 239.621 504.337 304.528 508.797L330.44 509.743C332.884 509.731 338.264 508.851 340.23 509.157ZM325.184 129.059C287.065 128.933 245.165 137.89 214.676 162.088L286.071 235.666C301.367 230.078 317.539 226.131 333.865 229.772C335.16 229.671 336.776 230.171 338.067 230.404C393.797 240.459 425.956 303.977 403.302 355.727C405.887 357.598 408.185 360.41 410.445 362.694L458.995 410.982C465.159 417.173 471.447 423.343 476.628 430.391C480.349 423.841 484.854 417.843 488.372 411.133C514.029 362.19 517.11 301.772 497.782 250.156C471.573 180.161 399.85 130.003 325.184 129.059ZM319.31 269.654C289.379 271.424 269.333 294.331 271.366 324.062C273.303 352.368 300.812 373.421 328.408 368.882C366.541 360.651 384.191 314.766 356.42 286.239C345.761 275.289 334.361 269.837 319.31 269.654Z"/>
</svg>
