<?xml version="1.0" encoding="utf-8" ?>
<svg xmlns="http://www.w3.org/2000/svg" xmlns:xlink="http://www.w3.org/1999/xlink" width="437" height="437">
	<path fill="#FF7FD1" transform="matrix(0.682813 0 0 0.682813 -3.05176e-05 3.05176e-05)" d="M337.306 87.1581L346.138 87.9616C458.269 101.19 545.375 190.519 553.114 303.903L497.573 303.738C496.99 301.958 497.035 299.666 496.77 297.788C485.556 218.247 427.329 156.651 346.738 144.036C343.638 143.55 340.558 143.391 337.462 142.773L337.306 87.1581Z"/>
	<path fill="#FF7677" transform="matrix(0.682813 0 0 0.682813 -3.05176e-05 3.05176e-05)" d="M299.573 87.5794L303.803 87.2604L303.753 143.018C302.665 143.902 299.005 143.787 297.487 143.96L289.199 145.227C249.19 152.04 216.527 171.491 188.861 201.372C166.211 225.836 153.232 253.193 145.943 285.938L143.818 296.852C143.44 299.047 143.312 301.733 142.385 303.751L91.5589 303.738L87.7924 303.65L87.7801 300.771C88.7128 275.746 96.4701 250.512 106.147 227.624C129.334 172.781 173.018 129.569 227.25 105.686C244.502 98.0888 280.045 86.7905 299.573 87.5794Z"/>
	<path fill="#FF7677" transform="matrix(0.682813 0 0 0.682813 -3.05176e-05 3.05176e-05)" d="M314.909 236.696C335.676 235.833 355.561 242.025 372.15 254.536C424.902 294.325 409.362 379.705 345.226 399.707C339.06 401.63 333.014 402.591 326.633 403.412C319.153 403.476 311.648 403.399 304.272 401.948C262.021 393.639 231.659 353.774 237.25 310.337C242.664 268.28 273.895 240.875 314.909 236.696Z"/>
	<defs>
		<linearGradient id="gradient_0" gradientUnits="userSpaceOnUse" x1="219.54688" y1="234.7489" x2="438.29211" y2="523.55359">
			<stop offset="0" stop-color="#FF7571"/>
			<stop offset="1" stop-color="#FF7CE4"/>
		</linearGradient>
	</defs>
	<path fill="url(#gradient_0)" transform="matrix(0.682813 0 0 0.682813 -3.05176e-05 3.05176e-05)" d="M193.438 516.086C188.918 513.536 184.593 510.137 180.483 506.977L162.075 491.781C118.272 452.585 90.3593 393.612 87.0686 335.136L87.5163 335.003C88.3948 334.832 89.587 334.972 90.4915 334.968L136.168 334.948C136.979 334.942 142.036 334.648 142.465 335.047C143.114 335.649 145.263 351.443 145.685 353.579C154.424 397.92 179.11 435.125 214.632 462.31C221.946 467.338 229.187 472.297 236.964 476.609C334.615 530.748 462.277 475.787 491.153 368.849C494.139 357.792 496.522 346.452 497.383 335.015L553.048 335.177L552.099 348.322C546.811 399.226 522.004 449.112 485.567 484.954C447.282 522.615 396.845 547.479 343.165 552.625C296.829 557.068 251.333 547.015 210.102 525.669L199.294 519.783C197.356 518.692 195.121 517.546 193.438 516.086Z"/>
</svg>
